<svg width="34" height="34" viewBox="0 0 34 34" fill="none" xmlns="http://www.w3.org/2000/svg">
<path d="M5.49541 9.30358H27.652C28.4543 9.30358 29.1183 9.92737 29.1683 10.7281L30.1589 26.5771C30.313 29.042 28.3554 31.1257 25.8857 31.1257H7.26176C4.79206 31.1257 2.83449 29.042 2.98854 26.5771L3.9791 10.7281C4.02915 9.92737 4.69314 9.30358 5.49541 9.30358Z" stroke="black" stroke-width="2.48607"/>
<path d="M21.1316 14.2759C21.1316 16.7931 19.091 18.8337 16.5738 18.8337C14.0566 18.8337 12.016 16.7931 12.016 14.2759" stroke="black" stroke-width="2.48607" stroke-linecap="round"/>
<path d="M21.1316 8.82031V6.54142C21.1316 4.02422 19.091 1.98363 16.5738 1.98363C14.0566 1.98363 12.016 4.02422 12.016 6.54142V8.82031" stroke="black" stroke-width="2.48607" stroke-linecap="round"/>
</svg>
