<svg width="24" height="24" viewBox="0 0 24 24" fill="none" xmlns="http://www.w3.org/2000/svg">
<path d="M12.314 6.18339L11.6642 5.55294C11.5296 5.42243 11.4002 5.29738 11.2744 5.1759C11.0546 4.96356 10.8461 4.76211 10.6415 4.56147C9.00072 2.95369 6.74236 2.49849 4.93299 3.27973L4.93283 3.2798C3.11907 4.06251 1.85702 6.05597 1.90111 8.2878L1.90111 8.28786C1.93442 9.97971 2.64327 11.4799 3.67634 12.9641L3.67663 12.9645C5.93146 16.2078 8.99036 18.6439 12.2533 21.0299C14.6308 19.2989 16.895 17.5126 18.8503 15.3974L19.5111 16.0083L18.8503 15.3974C20.5094 13.6026 21.8746 11.7872 22.4325 9.53915L22.4326 9.53892C23.0207 7.1723 22.0148 4.70673 20.1001 3.55457L12.314 6.18339ZM12.314 6.18339L12.9405 5.52977M12.314 6.18339L12.9405 5.52977M12.9405 5.52977C13.0847 5.3794 13.212 5.2413 13.3318 5.11146C13.5615 4.86227 13.7633 4.64348 14.0019 4.42673L14.0023 4.42642M12.9405 5.52977L14.0023 4.42642M14.0023 4.42642C15.8653 2.73247 18.2782 2.45896 20.1 3.55448L14.0023 4.42642Z" fill="#FE0135" stroke="#FE0135" stroke-width="1.8"/>
</svg>
