<svg width="27" height="27" viewBox="0 0 27 27" fill="none" xmlns="http://www.w3.org/2000/svg">
<path fill-rule="evenodd" clip-rule="evenodd" d="M12.0097 2.70858e-08C10.0944 0.000163192 8.20703 0.458334 6.50489 1.33629C4.80276 2.21424 3.33525 3.48651 2.22482 5.04697C1.11439 6.60742 0.393225 8.4108 0.121499 10.3066C-0.150227 12.2025 0.0353627 14.1358 0.662785 15.9454C1.29021 17.7549 2.34127 19.3881 3.72828 20.7089C5.11529 22.0296 6.79802 22.9994 8.63609 23.5376C10.4742 24.0757 12.4143 24.1664 14.2945 23.8022C16.1748 23.438 17.9407 22.6295 19.445 21.444L24.6053 26.6044C24.8718 26.8618 25.2288 27.0042 25.5993 27.001C25.9697 26.9977 26.3242 26.8491 26.5861 26.5872C26.8481 26.3252 26.9967 25.9708 26.9999 25.6003C27.0032 25.2298 26.8607 24.8729 26.6033 24.6064L21.443 19.446C22.8391 17.6749 23.7083 15.5466 23.9512 13.3046C24.1942 11.0626 23.801 8.7975 22.8168 6.76851C21.8325 4.73951 20.2969 3.02861 18.3856 1.8316C16.4744 0.634597 14.2648 -0.000151396 12.0097 2.70858e-08V2.70858e-08ZM2.82502 12.0107C2.82502 9.57477 3.79269 7.23862 5.51514 5.51616C7.23759 3.79371 9.57374 2.82604 12.0097 2.82604C14.4456 2.82604 16.7817 3.79371 18.5042 5.51616C20.2266 7.23862 21.1943 9.57477 21.1943 12.0107C21.1943 14.4466 20.2266 16.7828 18.5042 18.5052C16.7817 20.2277 14.4456 21.1953 12.0097 21.1953C9.57374 21.1953 7.23759 20.2277 5.51514 18.5052C3.79269 16.7828 2.82502 14.4466 2.82502 12.0107V12.0107Z" fill="#303335"/>
</svg>
