<svg width="27" height="28" viewBox="0 0 27 28" fill="none" xmlns="http://www.w3.org/2000/svg">
<path d="M6.56174 22.7631C6.58544 22.4292 6.4466 22.1044 6.18889 21.8908C3.71877 19.8436 2.1625 16.7857 2.1625 13.357C2.1625 7.21166 7.22297 2.19033 13.511 2.19033C19.785 2.19033 24.8462 7.21094 24.8462 13.357C24.8462 19.5016 19.7733 24.5237 13.4978 24.5237C12.4533 24.5237 11.461 24.387 10.5054 24.1267C10.305 24.0721 10.0928 24.0789 9.89636 24.1463L6.37799 25.3521L6.56174 22.7631ZM6.35021 25.7434L6.35024 25.743L6.35021 25.7434Z" stroke="black" stroke-width="2.075" stroke-linejoin="round"/>
<path d="M11.4185 10.1391C11.4999 10.1511 11.5678 10.1631 11.6491 10.1752C12.8565 10.4396 14.0909 11.5697 15.0405 12.2429C15.5695 12.6276 16.0172 12.5915 16.5462 12.2309C17.6721 11.4374 18.8388 10.6801 19.9918 9.89866C20.3038 9.68227 20.6294 9.45386 21.0092 9.74238C21.4297 10.0549 21.172 10.3915 20.9549 10.7041C19.8155 12.315 18.6895 13.9259 17.5365 15.5248C16.7497 16.6308 15.6373 16.787 14.4436 16.0056C13.6161 15.4526 12.7615 14.9357 11.9476 14.3587C11.405 13.974 10.9573 14.0221 10.4418 14.3827C9.30235 15.1761 8.1493 15.9335 6.99625 16.7149C6.68425 16.9313 6.35868 17.1597 5.97885 16.8592C5.59903 16.5706 5.80251 16.2461 6.00598 15.9455C7.18617 14.2865 8.35278 12.6276 9.53296 10.9686C9.92636 10.4036 10.6589 10.067 11.4185 10.1391Z" fill="black"/>
</svg>
