<svg width="143" height="41" viewBox="0 0 143 41" fill="none" xmlns="http://www.w3.org/2000/svg">
<path fill-rule="evenodd" clip-rule="evenodd" d="M7.31038 0.141294C4.40579 1.38151 1.20452 4.87668 0.197228 9.26678C-1.07914 14.8266 4.2402 17.1802 4.68176 16.4121C5.18541 15.5031 3.72276 15.1931 3.41919 12.311C3.02593 8.58325 4.73695 4.41865 6.88263 2.59355C7.28278 2.25531 7.26209 2.72744 7.26209 3.60123C7.26209 5.1656 7.1793 19.1956 7.1793 22.12C7.1793 26.0802 7.02061 27.3345 6.73084 28.5677C6.43417 29.822 5.96502 30.6676 6.32379 30.9918C6.72394 31.3582 8.42807 30.4915 9.40776 29.0892C10.5875 27.4121 11.0015 25.3967 11.0774 23.2122C11.1671 20.5697 11.1602 16.391 11.1671 14.0022C11.1671 11.8106 11.2016 5.40518 11.1326 1.55064C11.105 0.613423 8.53155 -0.373116 7.31038 0.141294ZM141.481 20.9502C141.06 20.9502 140.867 21.3942 140.708 22.1341C140.156 24.7202 139.576 25.3051 138.824 25.3051C137.99 25.3051 137.238 24.0226 137.044 21.4576C136.893 19.4422 136.913 15.7286 137.106 12.0361C137.148 11.2751 136.941 10.5281 134.94 9.78824C134.078 9.47114 132.822 8.99901 132.201 10.5352C130.442 14.8548 129.752 18.2866 129.586 19.6818C129.579 19.7523 129.49 19.7664 129.476 19.6043C129.372 18.4839 129.145 16.4544 129.11 12.1912C129.103 11.3597 128.931 10.6479 128.027 10.0701C127.441 9.69663 125.661 9.02719 125.019 9.82347C124.467 10.4718 123.818 12.2123 123.149 14.277C122.604 15.9541 122.232 17.0886 122.232 17.0886C122.232 17.0886 122.239 12.5576 122.245 10.8452C122.245 10.1969 121.811 9.98554 121.68 9.94326C121.086 9.7671 119.913 9.47818 119.417 9.47818C118.803 9.47818 118.658 9.82347 118.658 10.3308C118.658 10.3943 118.561 16.2923 118.561 20.4147V20.9995C118.223 22.8951 117.126 25.4672 115.933 25.4672C114.732 25.4672 114.173 24.3961 114.173 19.4775C114.173 16.6094 114.256 15.3622 114.297 13.2905C114.318 12.0996 114.366 11.1764 114.366 10.9721C114.36 10.3308 113.269 10.0137 112.766 9.89394C112.255 9.77414 111.814 9.72482 111.469 9.74596C110.979 9.77414 110.634 10.0983 110.634 10.5493C110.634 10.7889 110.634 11.2469 110.634 11.2469C110.006 10.2463 108.999 9.54865 108.323 9.34429C106.515 8.8017 104.625 9.28087 103.197 11.3103C102.065 12.917 101.382 14.7421 101.113 17.3634C100.913 19.2802 100.982 21.225 101.327 22.8669C100.906 24.7202 100.119 25.4813 99.2639 25.4813C98.0221 25.4813 97.1183 23.4166 97.2217 19.8439C97.2907 17.4973 97.753 15.8484 98.2566 13.4596C98.4705 12.4448 98.298 11.9093 97.8565 11.4019C97.4563 10.9369 96.5939 10.6973 95.3589 10.9862C94.4827 11.1976 93.2202 11.4231 92.0749 11.5922C92.0749 11.5922 92.1439 11.3103 92.1991 10.8171C92.4957 8.21682 89.7153 8.42822 88.8253 9.25973C88.2941 9.76005 87.9353 10.3449 87.7973 11.3949C87.5835 13.065 88.9219 13.8542 88.9219 13.8542C88.4804 15.8977 87.4041 18.5684 86.2933 20.4992C85.7 21.5351 85.2377 22.3032 84.6513 23.1136C84.6513 22.8106 84.6513 22.5075 84.6444 22.2045C84.6306 17.906 84.6858 14.5236 84.7134 13.3045C84.7341 12.1136 84.7824 11.2187 84.7824 11.0073C84.7755 10.5422 84.5064 10.3661 83.9475 10.1406C83.4508 9.94326 82.8713 9.80938 82.2641 9.76005C81.5052 9.69663 81.0429 10.1124 81.0567 10.5986C81.0567 10.6902 81.0567 11.254 81.0567 11.254C80.4289 10.2533 79.4216 9.5557 78.7455 9.35134C76.9379 8.80874 75.0475 9.28792 73.6193 11.3174C72.4878 12.924 71.7496 15.186 71.5357 17.3494C71.3426 19.3647 71.3771 21.0771 71.6461 22.5216C71.3564 23.9662 70.5284 25.4813 69.597 25.4813C68.4035 25.4813 67.7204 24.4102 67.7204 19.4916C67.7204 16.6235 67.8032 15.3763 67.8446 13.3045C67.8722 12.1136 67.9136 11.1905 67.9136 10.9862C67.9067 10.3449 66.8166 10.0278 66.313 9.90803C65.7817 9.78119 65.3264 9.73891 64.9745 9.7671C64.5123 9.80233 64.188 10.2251 64.188 10.5352V11.261C63.5602 10.2604 62.546 9.56274 61.8768 9.35839C60.0691 8.81579 58.1925 9.30906 56.7575 11.3244C55.8192 12.6422 55.0603 14.1008 54.6739 17.3282C54.5566 18.2584 54.5083 19.1322 54.5152 19.9496C54.1427 22.275 52.4937 24.9457 51.1484 24.9457C50.3619 24.9457 49.6098 23.3884 49.6098 20.0764C49.6098 15.6581 49.8789 9.37248 49.9272 8.76646C49.9272 8.76646 51.6313 8.73828 51.9625 8.73123C52.8111 8.72418 53.5838 8.74532 54.7153 8.6819C55.281 8.65372 55.8261 6.58198 55.2466 6.3283C54.9775 6.20851 53.1009 6.10986 52.3558 6.09576C51.7624 6.06053 50.0169 5.92664 50.0169 5.92664C50.0169 5.92664 50.1756 1.75499 50.2101 1.31105C50.2377 0.944619 49.7685 0.754358 49.5064 0.64161C48.8509 0.359742 48.2714 0.225855 47.5815 0.0849204C46.6225 -0.119434 46.1947 0.0778737 46.105 0.902338C45.9739 2.14256 45.9118 5.79275 45.9118 5.79275C45.2081 5.79275 42.8141 5.65182 42.1172 5.65182C41.4618 5.65182 40.765 8.49869 41.6619 8.53392C42.6968 8.5762 44.5044 8.61144 45.7049 8.64667C45.7049 8.64667 45.6497 15.038 45.6497 17.0111C45.6497 17.2155 45.6497 17.4198 45.6497 17.6171C44.9942 21.1123 42.6692 22.9938 42.6692 22.9938C43.1659 20.6824 42.1517 18.949 40.3165 17.4832C39.6404 16.9406 38.3088 15.9189 36.8117 14.7914C36.8117 14.7914 37.6741 13.9247 38.4468 12.1841C38.9919 10.9509 39.0126 9.53456 37.681 9.2245C35.4801 8.71009 33.6587 10.352 33.1206 12.1137C32.6997 13.4737 32.9274 14.4813 33.7484 15.5313C33.8036 15.6088 33.8726 15.6863 33.9416 15.7638C33.4448 16.7433 32.7618 18.054 32.1823 19.0687C30.5747 21.8945 29.3605 24.1283 28.4429 24.1283C27.7115 24.1283 27.7184 21.8592 27.7184 19.7382C27.7184 17.906 27.8495 15.1578 27.9599 12.3039C27.9944 11.3597 27.5322 10.8241 26.7525 10.3379C26.2834 10.0419 25.2761 9.45704 24.6897 9.45704C23.8135 9.45704 21.2952 9.57684 18.915 16.5813C18.6183 17.4621 18.025 19.0758 18.025 19.0758L18.0733 10.655C18.0733 10.4577 17.9698 10.2674 17.7352 10.1335C17.335 9.90803 16.2587 9.45704 15.3066 9.45704C14.8513 9.45704 14.6236 9.67549 14.6236 10.1053L14.5408 23.2827C14.5408 24.2833 14.5684 25.4531 14.665 25.9604C14.7616 26.4678 14.9203 26.8906 15.1135 27.1372C15.3066 27.3839 15.5343 27.5741 15.9 27.6516C16.2449 27.7221 18.1353 27.9687 18.2319 27.2359C18.3492 26.355 18.3561 25.4037 19.3496 21.8592C20.8951 16.3346 22.9096 13.6428 23.8548 12.6844C24.0204 12.5153 24.2136 12.5083 24.1998 12.7831C24.1584 13.9951 24.0204 17.0252 23.9238 19.5902C23.6686 26.4678 24.8966 27.7432 26.656 27.7432C28.0013 27.7432 29.8986 26.3832 31.9339 22.9444C33.2034 20.8022 34.4314 18.6953 35.3214 17.1802C35.9355 17.7581 36.6323 18.3852 37.3222 19.0476C38.9298 20.5979 39.4541 22.0706 39.1091 23.4659C38.8401 24.537 37.8328 25.6363 36.039 24.5652C35.5146 24.2551 35.2938 24.0155 34.7695 23.6562C34.4866 23.4659 34.052 23.4095 33.7967 23.6139C33.1275 24.1283 32.7411 24.7836 32.5203 25.594C32.3065 26.3832 33.0861 26.799 33.8864 27.1654C34.5832 27.4825 36.0735 27.7644 37.0256 27.7996C40.7305 27.9265 43.6972 25.9816 45.7669 20.9643C46.1395 25.298 47.7125 27.7503 50.4447 27.7503C52.273 27.7503 54.1082 25.3474 54.9085 22.9867C55.1362 23.9521 55.4811 24.7907 55.9158 25.4953C58.027 28.8919 62.1113 28.159 64.1673 25.2769C64.8021 24.389 64.8986 24.0649 64.8986 24.0649C65.1953 26.7849 67.3548 27.7362 68.5898 27.7362C69.9696 27.7362 71.3978 27.0738 72.3982 24.7836C72.5154 25.0303 72.6465 25.2699 72.7845 25.4953C74.8888 28.8919 78.9801 28.159 81.0291 25.2769C81.1257 25.143 81.2085 25.0232 81.2844 24.9105L81.3465 26.7003C81.3465 26.7003 80.1736 27.7926 79.4561 28.462C76.2893 31.4146 73.8815 33.6554 73.7021 36.2627C73.4744 39.5888 76.1307 40.8219 78.1384 40.984C80.2702 41.1531 82.0985 39.9622 83.2162 38.2851C84.2028 36.8124 84.8513 33.6343 84.8031 30.5056C84.7824 29.2512 84.7548 27.6587 84.7272 25.9463C85.8379 24.6356 87.0936 22.9726 88.2458 21.0348C89.5015 18.9137 90.8537 16.0739 91.5436 13.8612C91.5436 13.8612 92.7165 13.8683 93.9653 13.7908C94.3654 13.7696 94.4758 13.8471 94.4068 14.1431C94.3172 14.5025 92.8269 20.3442 94.1861 24.234C95.1175 26.8976 97.2149 27.7573 98.4567 27.7573C99.9125 27.7573 101.306 26.644 102.051 24.9809C102.141 25.1642 102.238 25.3403 102.341 25.5094C104.445 28.906 108.523 28.166 110.593 25.291C111.062 24.6427 111.324 24.079 111.324 24.079C111.765 26.8976 113.925 27.7644 115.16 27.7644C116.443 27.7644 117.664 27.2288 118.658 24.847C118.699 25.897 118.768 26.7567 118.865 27.0245C118.927 27.1866 119.293 27.398 119.562 27.4966C120.741 27.9406 121.935 27.7292 122.383 27.6375C122.694 27.5741 122.928 27.3204 122.963 26.6792C123.046 24.9809 122.997 22.12 123.501 19.9989C124.35 16.4333 125.143 15.0521 125.523 14.3686C125.73 13.9881 125.971 13.9247 125.978 14.3263C125.999 15.1508 126.04 17.5537 126.364 20.7952C126.606 23.177 126.93 24.5863 127.178 25.0303C127.889 26.3057 128.765 26.3621 129.476 26.3621C129.931 26.3621 130.876 26.2353 130.794 25.4249C130.752 25.0303 130.828 22.5921 131.663 19.0758C132.215 16.7856 133.126 14.7139 133.457 13.9599C133.581 13.678 133.636 13.9035 133.636 13.9458C133.567 15.5243 133.408 20.6824 134.043 23.5082C134.899 27.3345 137.382 27.7573 138.245 27.7573C140.087 27.7573 141.598 26.3339 142.108 22.578C142.205 21.6549 142.026 20.9502 141.481 20.9502ZM64.188 18.6319C64.0845 20.619 63.6982 22.282 63.091 23.487C61.9802 25.6715 59.7932 26.3621 58.8273 23.2052C58.1304 20.9291 58.365 17.8285 58.6548 16.1514C59.0825 13.6639 60.1588 11.9022 61.8423 12.0714C63.574 12.2475 64.4088 14.5025 64.188 18.6319ZM81.0567 18.66C80.9602 20.5345 80.4772 22.423 79.9598 23.487C78.8835 25.6856 76.6274 26.3762 75.696 23.2052C75.0613 21.0418 75.2131 18.2443 75.5235 16.4826C75.9306 14.1924 76.9241 12.0714 78.711 12.0714C80.4496 12.0714 81.3051 14.0092 81.0567 18.66ZM81.4983 31.4639C81.4776 34.8886 80.9464 37.8835 79.808 38.7573C78.1935 39.9904 76.0272 39.0673 76.4756 36.5728C76.8758 34.3601 78.7455 32.1052 81.4983 29.3499C81.5052 29.3429 81.5052 29.97 81.4983 31.4639ZM110.613 18.6812C110.517 20.7388 110.068 22.3525 109.516 23.487C108.44 25.6856 106.198 26.3691 105.253 23.2052C104.735 21.4858 104.714 18.6037 105.087 16.2007C105.466 13.7555 106.522 11.9022 108.274 12.0714C109.992 12.2405 110.8 14.5025 110.613 18.6812Z" fill="black"/>
</svg>
