<svg width="39" height="39" viewBox="0 0 39 39" fill="none" xmlns="http://www.w3.org/2000/svg">
<circle cx="19.1411" cy="19.8351" r="19.149" fill="#1FA1FF"/>
<path fill-rule="evenodd" clip-rule="evenodd" d="M21.056 12.1756C21.056 11.1181 20.1987 10.2607 19.1411 10.2607C18.0836 10.2607 17.2262 11.1181 17.2262 12.1756L17.2262 17.9203H11.4815C10.424 17.9203 9.56665 18.7777 9.56665 19.8352C9.56665 20.8928 10.424 21.7501 11.4815 21.7501H17.2262L17.2262 27.4948C17.2262 28.5524 18.0836 29.4097 19.1411 29.4097C20.1987 29.4097 21.056 28.5524 21.056 27.4948L21.056 21.7501H26.8007C27.8583 21.7501 28.7156 20.8928 28.7156 19.8352C28.7156 18.7777 27.8583 17.9203 26.8007 17.9203H21.056L21.056 12.1756Z" fill="white"/>
</svg>
