<svg width="27" height="28" viewBox="0 0 27 28" fill="none" xmlns="http://www.w3.org/2000/svg">
<path d="M13.8542 7.14626L13.0957 6.39226C12.9445 6.24187 12.7989 6.09774 12.6574 5.95771C12.4101 5.71289 12.1754 5.4806 11.9452 5.24927L13.8542 7.14626ZM13.8542 7.14626L14.5848 6.36524M13.8542 7.14626L14.5848 6.36524M14.5848 6.36524C14.7474 6.19151 14.8908 6.03213 15.0255 5.88239C15.2838 5.5954 15.5102 5.34379 15.7782 5.09432L15.7786 5.09395M14.5848 6.36524L15.7786 5.09395M15.7786 5.09395C17.8682 3.14713 20.56 2.84064 22.59 4.09149C24.7344 5.41361 25.8762 8.25845 25.211 11.0018L25.211 11.002M15.7786 5.09395L25.211 11.002M25.211 11.002C24.5823 13.5977 23.0448 15.6915 21.1797 17.7589L21.1797 17.7589M25.211 11.002L21.1797 17.7589M21.1797 17.7589C18.9876 20.1889 16.4502 22.2422 13.7851 24.2315C10.1243 21.4876 6.694 18.6845 4.16342 14.9547L4.1631 14.9543M21.1797 17.7589L4.1631 14.9543M4.1631 14.9543C3.00154 13.2442 2.20136 11.5116 2.16376 9.55437L2.16376 9.55431M4.1631 14.9543L2.16376 9.55431M2.16376 9.55431C2.11387 6.96673 3.54209 4.67276 5.56784 3.77698L5.56803 3.77689M2.16376 9.55431L5.56803 3.77689M5.56803 3.77689C7.58189 2.88589 10.1033 3.40002 11.945 5.24907L5.56803 3.77689Z" stroke="black" stroke-width="2.075"/>
</svg>
